<svg width="101" height="59" viewBox="0 0 101 59" fill="none" xmlns="http://www.w3.org/2000/svg">
<rect width="101" height="59" fill="#1E1E1E"/>
<g id="Home - Image 2">
<rect width="1512" height="982" transform="translate(-107 -48.1554)" fill="white"/>
<g id="Frame 144">
<g id="ImageWithFallback [Vectorized]">
<path id="Vector" d="M64.7667 34.1233C64.8011 33.8202 64.8103 33.4109 64.9753 33.174C65.1582 33.0445 67.2163 33.0775 67.4341 33.1852C67.5693 33.867 67.5086 35.9275 67.5063 36.7021L67.5034 42.8457L67.5057 50.6876C67.5069 51.4861 67.5797 53.4113 67.5298 54.1149C66.9962 54.2086 65.5628 54.3749 65.1054 54.1142C64.7839 53.7457 64.8515 52.619 64.7025 51.9599C63.0565 53.7024 62.6312 54.3682 59.9587 54.4499C58.0725 54.4567 56.7533 54.2984 55.3598 52.9743C53.5666 51.2704 53.2966 49.9022 53.16 47.5432C52.8936 44.2107 54.7127 40.3044 58.3166 39.7865C58.7178 39.7289 59.1265 39.5958 59.5489 39.5914C61.2259 39.5736 63.19 40.1073 64.2262 41.5523L64.7197 42.1992C64.6796 41.2574 64.7323 40.1131 64.7358 39.1516C64.7266 37.4755 64.7375 35.7993 64.7667 34.1233ZM60.6997 51.885C61.2654 51.9478 62.4048 51.6033 62.8146 51.2143C64.91 49.2237 65.2716 45.9289 63.4422 43.6336C62.6392 42.6257 61.356 42.2057 60.1025 42.2629C58.9299 42.3585 57.9538 42.5842 57.1795 43.5572C55.4985 45.6692 55.4265 49.3818 57.6363 51.1732C58.5619 51.9253 59.5953 51.8662 60.6997 51.885Z" fill="#4D2E26"/>
<path id="Vector_2" d="M13.4237 16.5865C19.7739 16.4808 21.3336 22.8298 19.6272 27.8343C18.1737 32.0969 10.9594 32.7675 8.87363 29.1024C8.71647 30.5079 8.76192 31.8585 8.76811 33.2706C8.76806 33.9692 8.88566 36.8691 8.66661 37.2929C8.35035 37.4437 6.56962 37.3609 6.06618 37.3642C5.98932 36.5023 6.03637 34.8148 6.03614 33.9006L6.03626 27.3803L6.03442 21.0527C6.03334 19.8311 5.98703 18.1846 6.1114 17.0083C6.96841 17.0186 7.7775 16.9619 8.62959 17.0641C8.65251 17.4422 8.62076 18.9012 8.87741 19.0989C9.38194 18.4171 9.38257 18.3299 10.0588 17.8114C11.114 17.0022 12.1236 16.7465 13.4237 16.5865ZM13.1105 28.9321C17.8698 29.0069 19.0147 21.9551 15.2279 19.6834C14.793 19.4225 13.8832 19.1679 13.3811 19.1629C13.2734 19.1622 13.1656 19.166 13.0582 19.1743C11.9981 19.2041 11.1101 19.551 10.3803 20.3203C9.36131 21.4012 8.80852 22.8397 8.84125 24.3248C8.90194 26.7819 10.5174 28.9784 13.1105 28.9321Z" fill="#4D2E26"/>
<path id="Vector_3" d="M91.507 48.612C90.7126 52.4481 87.0864 55.0164 83.204 54.4929C79.3215 53.9694 76.5051 50.5323 76.7556 46.6228C77.0055 42.7133 80.2368 39.6631 84.1542 39.6384C88.0716 39.6138 91.3408 42.6233 91.64 46.5293C91.6933 47.2263 91.6485 47.9274 91.507 48.612ZM84.6265 51.8927C87.6452 51.8732 89.1233 48.8145 88.678 46.1367C88.3043 43.895 86.382 41.9643 83.996 42.2634C83.2097 42.3362 82.703 42.371 82.009 42.7696C80.1084 43.8611 79.7004 46.0033 79.8672 48.0105C80.0425 50.1231 81.3355 51.7417 83.5261 51.8726C83.8917 51.8944 84.258 51.8929 84.6265 51.8927Z" fill="#4D2E26"/>
<path id="Vector_4" d="M43.5829 16.5926C43.7263 16.5862 43.8698 16.5819 44.0132 16.5795C46.5467 16.5405 49.5131 17.6238 50.0641 20.4691C50.3329 21.8568 50.2103 23.7092 50.2104 25.1621L50.2233 31.1084C49.6277 31.0765 48.4713 31.1939 47.9443 31.051C47.5859 30.954 47.5906 29.7113 47.4352 29.2936L47.3587 29.2642C47.237 29.4703 46.9804 29.9427 46.8132 30.0804C44.1842 32.2458 38.5939 32.0031 37.8917 28.0962C37.393 24.7929 39.4385 23.1966 42.523 22.7414C43.7889 22.5546 46.2574 22.7069 47.3856 22.2208C47.7285 19.503 45.2621 18.3567 42.9547 18.984C40.8979 19.5432 41.3193 20.2674 40.4788 21.6118C39.9553 21.5402 39.4634 21.5486 38.9385 21.5513C38.7114 21.5524 38.2979 21.5882 38.2956 21.2627C38.2729 18.0812 40.9131 17.0622 43.5829 16.5926ZM41.9125 29.0182C44.3008 29.7939 46.4251 28.9773 47.2618 26.5293C47.5057 25.8159 47.4592 25.0815 47.4823 24.3464C47.1891 24.3576 46.7953 24.3617 46.5126 24.3925C45.2903 24.4728 43.9789 24.5069 42.8009 24.826C41.4645 25.188 40.6029 25.9118 40.7387 27.4009C40.8074 28.1536 41.1868 28.7348 41.9125 29.0182Z" fill="#4D2E26"/>
<path id="Vector_5" d="M28.6007 16.5871C28.7788 16.5749 28.9573 16.5719 29.1357 16.5782C32.4574 16.6832 34.6085 18.183 35.5113 21.424C35.7679 22.3454 35.768 23.6348 35.7296 24.5922C33.3378 24.5306 30.9451 24.5132 28.5527 24.54C27.6574 24.5499 25.8048 24.6688 24.9982 24.6008C25.0848 25.2061 25.1567 25.7199 25.3205 26.3126C26.1168 29.1947 29.8196 29.9216 32.0807 28.3059C32.6423 27.9046 32.8828 26.9799 33.5464 26.7714L33.5704 26.764C33.9707 26.6734 35.2538 26.7082 35.7139 26.7128C35.6167 27.589 35.1014 28.7671 34.5654 29.4127C32.4861 31.9171 27.4766 32.0609 24.9931 30.1337C23.721 29.1466 22.7224 27.7139 22.4996 26.2385C21.7477 21.2575 23.2289 17.4059 28.6007 16.5871ZM25.1916 22.753C26.6338 22.686 28.3123 22.7229 29.7745 22.7254C30.2352 22.7243 32.596 22.8589 32.793 22.588C33.2648 21.9391 32.0634 20.1228 31.5007 19.673C30.4876 18.9617 29.5086 18.9677 28.3752 19.0405L28.3569 19.0417C26.4041 19.473 25.3545 20.7626 25.1916 22.753Z" fill="#4D2E26"/>
<path id="Vector_6" d="M69.3822 9.874C69.8126 9.94369 71.4334 9.8889 71.9481 9.8807C71.8547 10.9432 71.8828 12.4921 71.8851 13.5687C71.896 15.347 71.8891 17.1254 71.865 18.9037C72.1235 18.6905 72.5018 18.3032 72.7643 18.0574C73.671 17.2085 75.129 16.558 76.3968 16.5929C77.852 16.6688 79.3886 16.9374 80.4403 18.0336C82.26 19.9304 82.0674 22.8498 82.0651 25.2436L82.0766 31.1056C81.4754 31.092 79.7565 31.1833 79.298 31.0336C79.1513 30.8149 79.1983 24.7613 79.1966 23.9344L79.196 23.8867C79.1622 21.5925 78.6257 19.2096 75.8483 19.1749C74.1386 19.1535 72.535 20.3422 72.0782 21.9789C71.7848 23.0317 71.8828 24.7364 71.8811 25.8485C71.8656 27.5996 71.8868 29.3508 71.9458 31.1011C71.0792 31.0661 70.0665 31.103 69.1764 31.0889C69.0389 29.1314 69.1157 26.2013 69.1163 24.1686L69.1185 12.6168C69.1203 12.1203 69.0945 10.1603 69.3822 9.874Z" fill="#4D2E26"/>
<path id="Vector_7" d="M37.9529 39.9454C38.2978 40.0492 39.9819 39.9732 40.4827 39.9813C41.0366 41.363 40.7581 42.3201 40.7725 43.7527C40.778 45.445 40.7189 47.1608 40.8219 48.8436C40.896 51.0903 42.142 52.097 44.3274 51.9452C45.5543 51.8599 46.3444 51.7454 46.9923 50.5937C47.5315 49.6351 47.5191 49.1376 47.7269 48.2073C48.0117 46.9322 47.5082 40.8195 48.099 40.0981C48.4899 39.8967 50.1092 39.9853 50.5794 40.064C50.7033 41.1839 50.6431 43.0596 50.637 44.2374L50.648 50.524C50.6485 51.0084 50.7273 53.7936 50.5398 54.0643C50.1266 54.245 48.3604 54.3292 48.0587 54.0471C47.8823 53.6048 47.9032 52.6521 47.8945 52.1416C47.4865 52.6226 46.6546 53.4775 46.1204 53.7866C44.8612 54.5151 42.7143 54.5985 41.3226 54.2662C40.2532 54.0125 39.2486 53.1636 38.6925 52.2267C38.0537 51.1275 37.857 50.0325 37.8642 48.785C37.88 46.0347 37.8731 43.2945 37.8479 40.5457C37.8464 40.377 37.909 40.1105 37.9529 39.9454Z" fill="#4D2E26"/>
<path id="Vector_8" d="M59.3615 16.5858C60.5926 16.5074 62.7648 16.9694 63.7947 17.6526C65.325 18.6679 65.9182 20.1206 66.3366 21.775C65.5565 21.8155 64.5151 21.814 63.7379 21.782C63.2783 21.1331 62.751 20.1193 62.1045 19.7348C60.145 18.5691 57.7561 19.1421 56.5368 21.051C55.6818 22.2704 55.55 24.3653 55.8834 25.8298C56.6268 29.0951 61.0654 30.1441 63.0032 27.3014C63.1625 27.1142 63.5098 26.6972 63.6932 26.5677C64.1168 26.2691 65.6339 26.2808 66.0884 26.3627C66.5876 26.8674 65.5485 28.5896 65.2189 29.0474C63.1849 31.8711 58.2548 32.1479 55.5709 30.1707C52.3334 27.8266 52.068 22.3801 54.296 19.286C55.5526 17.541 57.3005 16.8931 59.3615 16.5858Z" fill="#4D2E26"/>
<path id="Vector_9" d="M20.3127 39.6226C21.6148 39.411 23.606 39.9981 24.5525 40.9506C25.5543 41.9586 25.8842 42.7245 25.9158 44.1265C25.5373 44.1297 23.7255 44.2253 23.5604 44.1246C23.0365 43.8051 22.9933 42.4413 21.8586 42.0894C20.6209 41.7056 19.6651 41.9982 18.5581 42.476C17.886 43.4799 17.8474 44.5591 18.931 45.338C19.0718 45.4391 19.6927 45.5615 19.8818 45.614C22.6679 46.3884 26.1756 46.487 26.1391 50.281C26.1314 51.416 25.8572 52.0781 25.0988 52.9294C23.9837 54.1811 22.3534 54.3984 20.7603 54.4456C19.6996 54.462 17.9748 54.3604 17.0736 53.7593C15.5203 52.7235 15.3065 51.7603 14.9374 50.1018C15.4065 50.0784 17.0991 49.9419 17.4494 50.1959C17.8162 50.462 17.9948 51.2949 18.4976 51.6844C19.8578 52.7379 23.8095 52.4426 23.3441 50.0276C23.0773 48.6064 21.8856 48.5374 20.7607 48.3077C19.4069 48.0212 17.818 47.7064 16.7026 46.8427C15.0643 45.5741 15.0536 42.8053 16.3123 41.2727C17.2334 40.1511 18.9712 39.7751 20.3127 39.6226Z" fill="#4D2E26"/>
<path id="Vector_10" d="M32.8114 35.6263L32.9412 35.613C33.0627 35.7924 33.0421 39.5469 33.0486 40.0973C33.8213 39.9223 34.8197 39.9652 35.6151 39.9889C35.7119 40.3993 35.9383 42.1088 35.6617 42.3823C35.2933 42.4769 33.4292 42.4481 33.0097 42.3956C33.0685 43.6615 33.0277 45.2373 33.028 46.5249L33.0284 54.1446C32.2201 54.2103 31.4141 54.2053 30.6042 54.2007C30.5121 54.2021 30.4603 54.1514 30.3815 54.0983C30.2719 53.8517 30.303 43.3782 30.3248 42.4584C28.8345 42.3816 27.1467 43.0099 27.4812 41.0205C27.5788 40.4399 27.5491 40.5096 27.8642 39.9921C28.484 40.0448 29.6449 40.0129 30.298 40.0135C30.2493 39.497 30.3044 36.3004 30.445 35.859C30.4713 35.8308 30.503 35.797 30.5399 35.7576C31.1874 35.678 32.1731 35.6748 32.8114 35.6263Z" fill="#4D2E26"/>
<path id="Vector_11" d="M73.6831 39.9751C73.8177 39.9473 73.8355 39.9517 73.9691 39.9857C74.1393 40.2539 74.0481 52.7236 74.0493 54.1261C73.3203 54.232 72.3849 54.2071 71.6381 54.1996C70.9297 54.0855 71.1641 53.7921 71.1647 53.1521L71.1618 50.4273L71.1584 44.4169C71.1584 43.6277 71.0506 40.6799 71.3791 40.1809C71.665 39.9725 73.2205 39.9899 73.6831 39.9751Z" fill="#4D2E26"/>
<path id="Vector_12" d="M25.3102 5.98274C26.0085 5.89339 27.1076 5.93053 27.7349 6.28158C29.2164 7.11073 28.9009 8.69133 29.2539 9.82998L29.2623 9.85674C27.5726 9.89715 25.3554 9.77238 23.7152 9.89257C24.0343 11.1468 24.46 12.1321 25.9807 12.1801C26.8578 12.2078 27.2816 11.8503 27.876 11.2754C28.2063 11.0321 28.4958 10.7293 28.9016 10.9611C29.1794 11.3517 28.9318 11.9145 28.6639 12.2447C28.1744 12.8355 27.398 13.1437 26.6597 13.2254C24.6351 13.4494 22.6598 12.57 22.4826 10.2985C22.3467 8.55481 22.6317 6.88876 24.4814 6.13864C24.7628 6.02452 25.0165 6.00899 25.3102 5.98274ZM23.7763 9.00117C24.6113 9.0065 25.4972 9.02661 26.3282 9.01383C26.8472 9.02936 27.3018 9.05114 27.8218 8.99927C27.655 7.61515 26.9188 6.98195 25.5133 7.11543C24.4165 7.39994 24.0692 7.94935 23.7763 9.00117Z" fill="#4D2E26"/>
<path id="Vector_13" d="M15.0685 2.52526C15.618 2.50474 15.6826 2.47891 16.1729 2.74548C16.2864 4.07911 16.2653 5.53797 15.9823 6.84967C16.9162 6.09216 17.8786 5.81493 19.0779 5.96245C21.797 6.29699 21.0127 10.3495 21.1168 12.2304C21.1156 12.4768 21.1544 12.9243 20.9669 13.0927C20.633 13.163 20.1575 13.122 19.8278 13.0449C19.5472 12.8062 19.6334 9.10577 19.4219 8.22027L19.3276 7.66547C18.6993 7.2895 18.1935 7.04373 17.4885 7.22914C15.2389 7.82085 16.704 11.2998 16.139 12.8871C16.0227 13.2137 14.6496 13.2795 14.6048 12.6498C14.4483 9.46289 14.6677 6.14844 14.5398 2.96693C14.7239 2.81923 14.8916 2.68152 15.0685 2.52526Z" fill="#4D2E26"/>
<path id="Vector_14" d="M11.0877 3.73923C11.2516 3.74258 11.4796 3.74359 11.6372 3.76694C12.5804 3.90662 12.2825 5.44565 12.1737 6.06276C12.5773 6.10861 13.3003 6.01071 13.5461 6.14116C13.6731 6.31385 13.6454 6.4369 13.6749 6.63601C13.7932 7.43507 12.7155 7.31265 12.1727 7.32761C12.1261 8.8157 12.347 11.3115 12.2081 12.8369C12.1975 12.9533 11.983 13.0564 11.8666 13.1074C11.5586 13.1149 11.0422 13.1588 10.7949 12.9866C10.6772 12.7058 10.651 7.76858 10.732 7.26502C9.93762 7.28875 8.73168 7.33529 9.31811 6.12339C9.53516 6.04568 10.4607 6.07645 10.7324 6.07726C10.7204 5.45619 10.708 4.88826 10.661 4.26738C10.8051 3.95298 10.7904 3.90749 11.0877 3.73923Z" fill="#4D2E26"/>
<path id="Vector_15" d="M95.5625 50.4567C97.3902 50.3132 98.5617 52.8392 97.0366 54.0046C96.6743 54.2817 96.2881 54.3451 95.8553 54.4508C93.819 54.531 93.2757 53.241 93.6854 51.4494C94.2523 50.834 94.7263 50.528 95.5625 50.4567Z" fill="#4D2E26"/>
<path id="Vector_16" d="M72.4193 33.3249C73.0766 33.3153 73.3225 33.36 73.8893 33.6576C74.6992 34.958 74.5559 36.4619 72.8766 36.8226C72.2273 36.8099 71.9453 36.796 71.3813 36.3827C70.5915 35.8037 70.4757 34.5569 71.0747 33.8052C71.4054 33.3905 71.916 33.3529 72.4193 33.3249Z" fill="#4D2E26"/>
<path id="Vector_17" d="M64.2263 41.5523C64.2997 41.529 64.4556 41.4913 64.4756 41.3958C64.5593 41.0002 64.537 40.4429 64.5364 40.0482L64.518 36.6516C64.5117 36.0292 64.3782 34.5454 64.7668 34.1233C64.7376 35.7993 64.7267 37.4755 64.7358 39.1517C64.7324 40.1132 64.6797 41.2574 64.7198 42.1992L64.2263 41.5523Z" fill="#4D2E26"/>
<path id="Vector_18" d="M91.64 46.5293C91.6933 46.0639 91.656 45.8367 91.5907 45.3735C91.7225 45.2878 91.6617 45.3067 91.8457 45.3324C91.977 45.532 91.9741 48.4049 91.8881 48.8374C91.8778 48.8877 91.8652 48.9374 91.8497 48.9864C91.6675 48.9484 91.7013 48.9306 91.5603 48.9941C91.4789 48.8599 91.5081 48.7901 91.507 48.612C91.6486 47.9274 91.6933 47.2263 91.64 46.5293Z" fill="#4D2E26"/>
</g>
</g>
</g>
</svg>
