<svg width="59" height="59" viewBox="0 0 59 59" fill="none" xmlns="http://www.w3.org/2000/svg">

<g id="Home - Image 2">

<g id="Frame 144">
<g id="Component 25">
<path id="Vector" d="M32.6552 16.5377C33.3219 14.5553 34.614 12.2189 35.7468 10.4607C36.3604 9.51078 36.561 7.93547 37.9711 8.27767C35.2925 14.1187 31.1035 19.0511 32.077 25.9718C48.479 19.6824 50.2431 39.9135 39.4402 47.7959C36.4548 49.9789 30.0769 49.8137 29.7111 50.1618C29.5046 50.3565 29.835 52.4451 29.6993 53.1059C28.8379 52.9171 28.714 51.8905 27.6402 51.9082C27.4455 51.9082 26.3717 55.5662 26.1652 51.33L23.8111 52.51C25.2979 48.144 21.3508 48.6986 18.3005 46.5097C12.0406 42.0139 11.604 32.9633 15.4272 26.7329C19.5926 19.9479 25.6283 23.5705 31.4693 25.3641C30.5548 23.7357 31.251 21.9657 30.3247 20.3196C29.6108 19.0511 23.7345 14.7972 22.0176 12.6968C20.8081 11.2159 17.8108 8.08887 19.9171 6.43687C24.2772 3.02078 31.9591 17.0451 32.6435 16.5141L32.6552 16.5377Z" fill="#4D2E26"/>
</g>
</g>
</g>
</svg>
