<svg width="58" height="58" viewBox="0 0 58 58" fill="none" xmlns="http://www.w3.org/2000/svg">
<rect width="58" height="58" fill="#1E1E1E"/>
<g id="Landing Page">
<rect width="1512" height="982" transform="translate(-727 -128)" fill="white"/>
<g id="Component 24">
<path id="Vector" d="M39.6615 6.77792C40.8679 8.76152 35.5319 19.1783 34.5633 21.5737C38.3449 21.3881 42.5093 20.8429 45.9719 22.7975C46.9057 26.6081 36.5237 27.4723 37.0341 28.9629C45.5543 36.6885 38.8959 39.7625 31.0659 33.9741C30.3583 37.5759 24.9005 50.4519 22.0585 51.9135C16.5311 54.7555 19.8719 41.7113 20.4345 39.7045C20.9217 37.9587 21.9019 36.3695 22.5341 34.6875L14.4141 37.0075C13.4281 37.0945 11.8505 36.7929 11.6359 35.6793C10.9805 32.2805 19.4659 27.2345 22.0411 25.6279C9.62915 18.8477 17.9637 10.4377 27.7425 19.1087L28.4501 18.9231C29.1055 16.8177 36.6861 1.90012 39.6557 6.77212L39.6615 6.77792Z" fill="#E7B8AC"/>
</g>
</g>
</svg>
