<svg width="37" height="37" viewBox="0 0 37 37" fill="none" xmlns="http://www.w3.org/2000/svg">
<rect width="37" height="37" fill="#1E1E1E"/>
<g id="Landing Page">
<rect width="1512" height="982" transform="translate(-138 -909.051)" fill="white"/>
<g id="Frame 135">
<rect width="1512" height="115" transform="translate(-138 -42.0507)" fill="#F7E7E3"/>
<g id="Frame 138">
<g id="Group 56">
<g id="uil:instagram" clip-path="url(#clip0_607_823)">
<path id="Vector" d="M26.7319 8.41687C26.366 8.41687 26.0083 8.52537 25.7041 8.72865C25.3998 8.93193 25.1627 9.22086 25.0227 9.55891C24.8827 9.89695 24.846 10.2689 24.9174 10.6278C24.9888 10.9867 25.165 11.3163 25.4237 11.575C25.6824 11.8337 26.0121 12.0099 26.371 12.0813C26.7298 12.1527 27.1018 12.1161 27.4398 11.976C27.7779 11.836 28.0668 11.5989 28.2701 11.2947C28.4734 10.9904 28.5819 10.6328 28.5819 10.2669C28.5819 9.77622 28.387 9.30566 28.04 8.95872C27.6931 8.61178 27.2225 8.41687 26.7319 8.41687ZM33.8235 12.1477C33.7933 10.8686 33.5537 9.60311 33.1144 8.40145C32.7241 7.37246 32.1138 6.44116 31.326 5.6727C30.5626 4.88248 29.6295 4.27622 28.5973 3.89979C27.3989 3.44678 26.1319 3.20173 24.851 3.1752C23.2169 3.0827 22.6927 3.0827 18.4994 3.0827C14.306 3.0827 13.7819 3.0827 12.1477 3.1752C10.8668 3.20173 9.59985 3.44678 8.40145 3.89979C7.37158 4.28097 6.43947 4.88658 5.6727 5.6727C4.88248 6.4361 4.27622 7.36921 3.89978 8.40145C3.44678 9.59986 3.20173 10.8668 3.1752 12.1477C3.0827 13.7819 3.0827 14.306 3.0827 18.4994C3.0827 22.6927 3.0827 23.2169 3.1752 24.851C3.20173 26.1319 3.44678 27.3989 3.89978 28.5973C4.27622 29.6295 4.88248 30.5626 5.6727 31.326C6.43947 32.1122 7.37158 32.7178 8.40145 33.099C9.59985 33.552 10.8668 33.797 12.1477 33.8235C13.7819 33.916 14.306 33.916 18.4994 33.916C22.6927 33.916 23.2169 33.916 24.851 33.8235C26.1319 33.797 27.3989 33.552 28.5973 33.099C29.6295 32.7225 30.5626 32.1163 31.326 31.326C32.1157 30.5592 32.7264 29.6274 33.1144 28.5973C33.5537 27.3956 33.7933 26.1301 33.8235 24.851C33.8235 23.2169 33.916 22.6927 33.916 18.4994C33.916 14.306 33.916 13.7819 33.8235 12.1477ZM31.0485 24.666C31.0376 25.6447 30.8604 26.6143 30.5244 27.5335C30.2782 28.2045 29.8828 28.8107 29.3681 29.3065C28.8678 29.8156 28.2629 30.2101 27.5952 30.4627C26.676 30.7987 25.7063 30.9759 24.7277 30.9869C23.186 31.064 22.6156 31.0794 18.561 31.0794C14.5064 31.0794 13.936 31.0794 12.3944 30.9869C11.3782 31.0068 10.3662 30.8503 9.40353 30.5244C8.76557 30.2582 8.18855 29.8647 7.7077 29.3681C7.196 28.8729 6.80558 28.2661 6.56687 27.5952C6.18923 26.6631 5.98042 25.6713 5.9502 24.666C5.9502 23.1244 5.8577 22.554 5.8577 18.4994C5.8577 14.4448 5.8577 13.8744 5.9502 12.3327C5.95582 11.3321 6.1385 10.3404 6.48978 9.40354C6.76119 8.75282 7.17777 8.17276 7.7077 7.7077C8.17471 7.17612 8.75392 6.75487 9.40353 6.47437C10.343 6.1344 11.3336 5.95714 12.3327 5.9502C13.8744 5.9502 14.4448 5.8577 18.4994 5.8577C22.5539 5.8577 23.1244 5.8577 24.666 5.9502C25.6447 5.96113 26.6143 6.13838 27.5335 6.47437C28.2341 6.73438 28.8629 7.15709 29.3681 7.7077C29.8718 8.18257 30.2663 8.76119 30.5244 9.40354C30.8673 10.3422 31.0447 11.3333 31.0485 12.3327C31.1256 13.8744 31.141 14.4448 31.141 18.4994C31.141 22.554 31.1256 23.1244 31.0485 24.666ZM18.4994 10.5906C16.9358 10.5937 15.4083 11.0601 14.1097 11.931C12.8112 12.8018 11.7999 14.0381 11.2036 15.4835C10.6074 16.9289 10.453 18.5186 10.7599 20.0517C11.0668 21.5849 11.8212 22.9926 12.9279 24.0971C14.0346 25.2016 15.4438 25.9534 16.9775 26.2573C18.5112 26.5612 20.1006 26.4037 21.5449 25.8046C22.9891 25.2056 24.2234 24.1919 25.0917 22.8916C25.9601 21.5914 26.4235 20.0629 26.4235 18.4994C26.4256 17.4589 26.2219 16.4283 25.8242 15.4668C25.4265 14.5054 24.8426 13.632 24.1062 12.897C23.3698 12.162 22.4953 11.5799 21.5331 11.1841C20.5708 10.7882 19.5398 10.5866 18.4994 10.5906ZM18.4994 23.6331C17.484 23.6331 16.4914 23.332 15.6472 22.7679C14.803 22.2038 14.145 21.402 13.7564 20.464C13.3678 19.5259 13.2662 18.4937 13.4643 17.4978C13.6623 16.502 14.1513 15.5872 14.8693 14.8693C15.5872 14.1513 16.502 13.6623 17.4978 13.4643C18.4937 13.2662 19.5259 13.3678 20.464 13.7564C21.402 14.145 22.2038 14.803 22.7679 15.6472C23.332 16.4915 23.6331 17.484 23.6331 18.4994C23.6331 19.1735 23.5003 19.8411 23.2423 20.464C22.9843 21.0868 22.6062 21.6528 22.1295 22.1295C21.6528 22.6062 21.0868 22.9843 20.464 23.2423C19.8411 23.5003 19.1735 23.6331 18.4994 23.6331Z" fill="#D47059"/>
</g>
</g>
</g>
</g>
</g>
<defs>
<clipPath id="clip0_607_823">
<rect width="37" height="37" fill="white"/>
</clipPath>
</defs>
</svg>
