<svg width="37" height="37" viewBox="0 0 37 37" fill="none" xmlns="http://www.w3.org/2000/svg">
<rect width="37" height="37" fill="#1E1E1E"/>
<g id="Landing Page">
<rect width="1512" height="982" transform="translate(-63 -909)" fill="white"/>
<g id="Frame 135">
<rect width="1512" height="115" transform="translate(-63 -42)" fill="#F7E7E3"/>
<g id="Frame 138">
<g id="Group 55">
<g id="ri:linkedin-fill" clip-path="url(#clip0_607_823)">
<path id="Vector" d="M10.6997 7.70988C10.6993 8.52763 10.374 9.31172 9.79552 9.88967C9.21699 10.4676 8.43257 10.7921 7.61482 10.7917C6.79707 10.7913 6.01297 10.466 5.43502 9.88749C4.85708 9.30896 4.53262 8.52454 4.53303 7.70679C4.53344 6.88904 4.85868 6.10495 5.4372 5.527C6.01573 4.94905 6.80015 4.62459 7.6179 4.625C8.43565 4.62541 9.21975 4.95065 9.7977 5.52918C10.3756 6.1077 10.7001 6.89212 10.6997 7.70988ZM10.7922 13.0749H4.62553V32.3765H10.7922V13.0749ZM20.5355 13.0749H14.3997V32.3765H20.4739V22.2478C20.4739 16.6053 27.8276 16.0811 27.8276 22.2478V32.3765H33.9172V20.1511C33.9172 10.639 23.033 10.9936 20.4739 15.6649L20.5355 13.0749Z" fill="#D47059"/>
</g>
</g>
</g>
</g>
</g>
<defs>
<clipPath id="clip0_607_823">
<rect width="37" height="37" fill="white"/>
</clipPath>
</defs>
</svg>
