<svg width="24" height="24" viewBox="0 0 24 24" fill="none" xmlns="http://www.w3.org/2000/svg">
<rect width="24" height="24" fill="#1E1E1E"/>
<g id="Contact Us Form">
<rect width="1512" height="982" transform="translate(-1214 -66)" fill="white"/>
<g id="Group 58">
<g id="Frame 137" filter="url(#filter0_d_607_823)">
<rect x="-971" y="-24" width="1027" height="899" rx="12" fill="white"/>
<rect x="-970.5" y="-23.5" width="1026" height="898" rx="11.5" stroke="#F3D9D2"/>
<g id="material-symbols:close-rounded">
<path id="Vector" d="M12 13.4L7.10005 18.3C6.91672 18.4833 6.68338 18.575 6.40005 18.575C6.11672 18.575 5.88338 18.4833 5.70005 18.3C5.51672 18.1167 5.42505 17.8833 5.42505 17.6C5.42505 17.3167 5.51672 17.0833 5.70005 16.9L10.6 12L5.70005 7.1C5.51672 6.91667 5.42505 6.68334 5.42505 6.4C5.42505 6.11667 5.51672 5.88334 5.70005 5.7C5.88338 5.51667 6.11672 5.425 6.40005 5.425C6.68338 5.425 6.91672 5.51667 7.10005 5.7L12 10.6L16.9 5.7C17.0834 5.51667 17.3167 5.425 17.6 5.425C17.8834 5.425 18.1167 5.51667 18.3 5.7C18.4834 5.88334 18.575 6.11667 18.575 6.4C18.575 6.68334 18.4834 6.91667 18.3 7.1L13.4 12L18.3 16.9C18.4834 17.0833 18.575 17.3167 18.575 17.6C18.575 17.8833 18.4834 18.1167 18.3 18.3C18.1167 18.4833 17.8834 18.575 17.6 18.575C17.3167 18.575 17.0834 18.4833 16.9 18.3L12 13.4Z" fill="#1B1B1B"/>
</g>
</g>
</g>
</g>
<defs>
<filter id="filter0_d_607_823" x="-1001.6" y="-50.6" width="1088.2" height="960.2" filterUnits="userSpaceOnUse" color-interpolation-filters="sRGB">
<feFlood flood-opacity="0" result="BackgroundImageFix"/>
<feColorMatrix in="SourceAlpha" type="matrix" values="0 0 0 0 0 0 0 0 0 0 0 0 0 0 0 0 0 0 127 0" result="hardAlpha"/>
<feOffset dy="4"/>
<feGaussianBlur stdDeviation="15.3"/>
<feComposite in2="hardAlpha" operator="out"/>
<feColorMatrix type="matrix" values="0 0 0 0 0 0 0 0 0 0 0 0 0 0 0 0 0 0 0.07 0"/>
<feBlend mode="normal" in2="BackgroundImageFix" result="effect1_dropShadow_607_823"/>
<feBlend mode="normal" in="SourceGraphic" in2="effect1_dropShadow_607_823" result="shape"/>
</filter>
</defs>
</svg>
