<svg width="41" height="41" viewBox="0 0 41 41" fill="none" xmlns="http://www.w3.org/2000/svg">

<g id="Contact Us Form">

<g id="Group 58">
<g id="Frame 137" filter="url(#filter0_d_607_823)">

<rect x="-500.5" y="-555.5" width="1026" height="898" rx="11.5" stroke="#F3D9D2"/>
<g id="Frame 151">
<g id="Frame 149">
<g id="Frame 80" filter="url(#filter1_d_607_823)">
<rect x="-66" y="-29" width="544" height="100" rx="8" fill="#FEF9F6" shape-rendering="crispEdges"/>
<rect x="-65.75" y="-28.75" width="543.5" height="99.5" rx="7.75" stroke="#DE9381" stroke-width="0.5" shape-rendering="crispEdges"/>
<g id="Frame 108">
<g id="Frame 106">
<rect x="-8" y="-8" width="58" height="58" rx="29" fill="#F8E7E3"/>
<g id="prime:upload">
<path id="Vector" d="M31.1325 35.4455H9.88085C9.28842 35.4213 8.70657 35.2806 8.1686 35.0313C7.63062 34.782 7.14708 34.4291 6.74564 33.9928C6.3442 33.5564 6.03274 33.0452 5.82908 32.4883C5.62542 31.9315 5.53356 31.34 5.55876 30.7476V25.6226C5.55876 25.2828 5.69375 24.9569 5.93403 24.7166C6.17431 24.4763 6.5002 24.3413 6.84001 24.3413C7.17982 24.3413 7.50571 24.4763 7.74599 24.7166C7.98627 24.9569 8.12126 25.2828 8.12126 25.6226V30.7476C8.07715 31.2548 8.22998 31.7596 8.54806 32.1572C8.86613 32.5548 9.32504 32.8147 9.8296 32.883H31.1325C31.6371 32.8147 32.096 32.5548 32.414 32.1572C32.7321 31.7596 32.885 31.2548 32.8408 30.7476V25.6226C32.8408 25.2828 32.9758 24.9569 33.2161 24.7166C33.4564 24.4763 33.7823 24.3413 34.1221 24.3413C34.4619 24.3413 34.7878 24.4763 35.0281 24.7166C35.2684 24.9569 35.4033 25.2828 35.4033 25.6226V30.7476C35.4545 31.9355 35.0345 33.0956 34.2347 33.9754C33.4348 34.8552 32.3199 35.3835 31.1325 35.4455ZM27.34 14.9455C27.1717 14.9463 27.0049 14.9134 26.8494 14.8489C26.6939 14.7844 26.5529 14.6894 26.4346 14.5697L20.5067 8.64174L14.5788 14.5697C14.3359 14.796 14.0146 14.9192 13.6827 14.9133C13.3508 14.9075 13.0341 14.773 12.7993 14.5383C12.5646 14.3035 12.4301 13.9868 12.4243 13.6549C12.4184 13.3229 12.5416 13.0017 12.7679 12.7588L19.6013 5.92549C19.8415 5.68555 20.1671 5.55078 20.5067 5.55078C20.8462 5.55078 21.1719 5.68555 21.4121 5.92549L28.2454 12.7588C28.4854 12.9991 28.6201 13.3247 28.6201 13.6642C28.6201 14.0038 28.4854 14.3294 28.2454 14.5697C28.1271 14.6894 27.9861 14.7844 27.8306 14.8489C27.6752 14.9134 27.5084 14.9463 27.34 14.9455Z" fill="#E9B6AA"/>
<path id="Vector_2" d="M20.5 26.9049C20.1616 26.9005 19.8382 26.7641 19.5989 26.5248C19.3596 26.2855 19.2232 25.9621 19.2188 25.6237V6.83203C19.2188 6.49222 19.3537 6.16633 19.594 5.92605C19.8343 5.68577 20.1602 5.55078 20.5 5.55078C20.8398 5.55078 21.1657 5.68577 21.406 5.92605C21.6463 6.16633 21.7812 6.49222 21.7812 6.83203V25.6237C21.7768 25.9621 21.6404 26.2855 21.4011 26.5248C21.1618 26.7641 20.8384 26.9005 20.5 26.9049Z" fill="#E9B6AA"/>
</g>
</g>
</g>
</g>
</g>
</g>
</g>
</g>
</g>
<defs>
<filter id="filter0_d_607_823" x="-531.6" y="-582.6" width="1088.2" height="960.2" filterUnits="userSpaceOnUse" color-interpolation-filters="sRGB">
<feFlood flood-opacity="0" result="BackgroundImageFix"/>
<feColorMatrix in="SourceAlpha" type="matrix" values="0 0 0 0 0 0 0 0 0 0 0 0 0 0 0 0 0 0 127 0" result="hardAlpha"/>
<feOffset dy="4"/>
<feGaussianBlur stdDeviation="15.3"/>
<feComposite in2="hardAlpha" operator="out"/>
<feColorMatrix type="matrix" values="0 0 0 0 0 0 0 0 0 0 0 0 0 0 0 0 0 0 0.07 0"/>
<feBlend mode="normal" in2="BackgroundImageFix" result="effect1_dropShadow_607_823"/>
<feBlend mode="normal" in="SourceGraphic" in2="effect1_dropShadow_607_823" result="shape"/>
</filter>
<filter id="filter1_d_607_823" x="-86.9" y="-48.9" width="585.8" height="141.8" filterUnits="userSpaceOnUse" color-interpolation-filters="sRGB">
<feFlood flood-opacity="0" result="BackgroundImageFix"/>
<feColorMatrix in="SourceAlpha" type="matrix" values="0 0 0 0 0 0 0 0 0 0 0 0 0 0 0 0 0 0 127 0" result="hardAlpha"/>
<feOffset dy="1"/>
<feGaussianBlur stdDeviation="10.45"/>
<feComposite in2="hardAlpha" operator="out"/>
<feColorMatrix type="matrix" values="0 0 0 0 0 0 0 0 0 0 0 0 0 0 0 0 0 0 0.03 0"/>
<feBlend mode="normal" in2="BackgroundImageFix" result="effect1_dropShadow_607_823"/>
<feBlend mode="normal" in="SourceGraphic" in2="effect1_dropShadow_607_823" result="shape"/>
</filter>
</defs>
</svg>
