<svg width="40" height="40" viewBox="0 0 40 40" fill="none" xmlns="http://www.w3.org/2000/svg">

<g id="Contact Us Form">

<g id="Group 58">
<g id="Frame 137" filter="url(#filter0_d_607_823)">

<rect x="-721.5" y="-810.5" width="1026" height="898" rx="11.5" stroke="#F3D9D2"/>
<g id="Frame 124">
<g id="Frame 122">
<g id="Frame 121">
<g id="Frame 112">
<g id="Frame 110">
<rect width="40" height="40" rx="20" fill="#F8E7E3"/>
<path id="Vector" d="M13 13H26C26.7956 13 27.5587 13.3161 28.1213 13.8787C28.6839 14.4413 29 15.2044 29 16V25C29 25.7956 28.6839 26.5587 28.1213 27.1213C27.5587 27.6839 26.7956 28 26 28H13C12.2044 28 11.4413 27.6839 10.8787 27.1213C10.3161 26.5587 10 25.7956 10 25V16C10 15.2044 10.3161 14.4413 10.8787 13.8787C11.4413 13.3161 12.2044 13 13 13ZM13 14C12.5 14 12.06 14.17 11.72 14.47L19.5 19.5L27.28 14.47C26.94 14.17 26.5 14 26 14H13ZM19.5 20.71L11.13 15.28C11.05 15.5 11 15.75 11 16V25C11 25.5304 11.2107 26.0391 11.5858 26.4142C11.9609 26.7893 12.4696 27 13 27H26C26.5304 27 27.0391 26.7893 27.4142 26.4142C27.7893 26.0391 28 25.5304 28 25V16C28 15.75 27.95 15.5 27.87 15.28L19.5 20.71Z" fill="#E9B6AA" stroke="#E9B6AA" stroke-width="0.25"/>
</g>
</g>
</g>
</g>
</g>
</g>
</g>
</g>
<defs>
<filter id="filter0_d_607_823" x="-752.6" y="-837.6" width="1088.2" height="960.2" filterUnits="userSpaceOnUse" color-interpolation-filters="sRGB">
<feFlood flood-opacity="0" result="BackgroundImageFix"/>
<feColorMatrix in="SourceAlpha" type="matrix" values="0 0 0 0 0 0 0 0 0 0 0 0 0 0 0 0 0 0 127 0" result="hardAlpha"/>
<feOffset dy="4"/>
<feGaussianBlur stdDeviation="15.3"/>
<feComposite in2="hardAlpha" operator="out"/>
<feColorMatrix type="matrix" values="0 0 0 0 0 0 0 0 0 0 0 0 0 0 0 0 0 0 0.07 0"/>
<feBlend mode="normal" in2="BackgroundImageFix" result="effect1_dropShadow_607_823"/>
<feBlend mode="normal" in="SourceGraphic" in2="effect1_dropShadow_607_823" result="shape"/>
</filter>
</defs>
</svg>
