<svg width="24" height="24" viewBox="0 0 24 24" fill="none" xmlns="http://www.w3.org/2000/svg">

<g id="Contact Us Form">

<g id="Group 58">
<g id="Frame 137" filter="url(#filter0_d_607_823)">

<rect x="-508.5" y="-818.5" width="1026" height="898" rx="11.5" stroke="#F3D9D2"/>
<g id="Frame 124">
<g id="Frame 122">
<g id="Frame 121">
<g id="Frame 115">
<g id="Frame 114">
<rect x="-8" y="-8" width="40" height="40" rx="20" fill="#F8E7E3"/>
<g id="fluent:call-16-regular">
<path id="Vector" d="M5.56453 7.88745C5.27803 6.00045 6.60853 4.30545 8.64103 3.68445C9.00172 3.57492 9.39057 3.60666 9.72872 3.77323C10.0669 3.9398 10.329 4.22874 10.462 4.58145L11.1145 6.32145C11.2196 6.60137 11.2386 6.90629 11.1691 7.19708C11.0996 7.48788 10.9448 7.75127 10.7245 7.95345L8.78353 9.73095C8.68773 9.81866 8.61636 9.92975 8.57639 10.0533C8.53642 10.1769 8.52923 10.3088 8.55553 10.436L8.57353 10.514L8.62003 10.709C8.86202 11.6562 9.22979 12.5668 9.71353 13.4165C10.2417 14.3186 10.8964 15.1404 11.6575 15.857L11.7175 15.911C11.8144 15.997 11.932 16.0564 12.0587 16.0835C12.1854 16.1106 12.3169 16.1043 12.4405 16.0655L14.95 15.275C15.2352 15.1854 15.5407 15.1831 15.8272 15.2684C16.1137 15.3536 16.3682 15.5225 16.558 15.7535L17.746 17.195C18.241 17.795 18.181 18.677 17.6125 19.2065C16.057 20.657 13.918 20.954 12.43 19.7585C10.6053 18.288 9.06756 16.4934 7.89403 14.465C6.70901 12.4391 5.9196 10.2074 5.56453 7.88745ZM10.1275 10.535L11.7355 9.05895C12.1763 8.65476 12.4862 8.12805 12.6254 7.54646C12.7647 6.96487 12.7269 6.35493 12.517 5.79495L11.866 4.05495C11.599 3.34511 11.0717 2.76354 10.3913 2.42838C9.711 2.09322 8.92859 2.02961 8.20303 2.25045C5.67853 3.02295 3.65203 5.28645 4.08103 8.11395C4.38103 10.088 5.07253 12.599 6.59803 15.221C7.8642 17.4081 9.52295 19.343 11.491 20.9285C13.723 22.721 16.702 22.109 18.637 20.306C19.1907 19.7904 19.5268 19.0831 19.5767 18.3282C19.6266 17.5733 19.3865 16.8279 18.9055 16.244L17.7175 14.801C17.3375 14.3397 16.8283 14.0024 16.2553 13.8324C15.6823 13.6625 15.0716 13.6675 14.5015 13.847L12.418 14.5025C11.88 13.9478 11.4088 13.3321 11.014 12.668C10.633 11.9963 10.3358 11.2804 10.129 10.5365" fill="#E9B6AA"/>
</g>
</g>
</g>
</g>
</g>
</g>
</g>
</g>
</g>
<defs>
<filter id="filter0_d_607_823" x="-539.6" y="-845.6" width="1088.2" height="960.2" filterUnits="userSpaceOnUse" color-interpolation-filters="sRGB">
<feFlood flood-opacity="0" result="BackgroundImageFix"/>
<feColorMatrix in="SourceAlpha" type="matrix" values="0 0 0 0 0 0 0 0 0 0 0 0 0 0 0 0 0 0 127 0" result="hardAlpha"/>
<feOffset dy="4"/>
<feGaussianBlur stdDeviation="15.3"/>
<feComposite in2="hardAlpha" operator="out"/>
<feColorMatrix type="matrix" values="0 0 0 0 0 0 0 0 0 0 0 0 0 0 0 0 0 0 0.07 0"/>
<feBlend mode="normal" in2="BackgroundImageFix" result="effect1_dropShadow_607_823"/>
<feBlend mode="normal" in="SourceGraphic" in2="effect1_dropShadow_607_823" result="shape"/>
</filter>
</defs>
</svg>
