<svg width="34" height="34" viewBox="0 0 34 34" fill="none" xmlns="http://www.w3.org/2000/svg">

<g id="Contact Us Form">

<g id="Group 58">
<g id="Frame 137" filter="url(#filter0_d_607_823)">

<rect x="-853.5" y="-661.5" width="1026" height="898" rx="11.5" stroke="#F3D9D2"/>
<g id="Frame 150">
<g id="Frame 85" filter="url(#filter1_d_607_823)">
<rect x="-205" y="-11" width="330" height="56" rx="8" fill="#D47059" shape-rendering="crispEdges"/>
<g id="Frame 109">
<g id="mingcute:arrow-up-line" clip-path="url(#clip0_607_823)">
<g id="Group">
<path id="Vector" d="M28.8508 18.0044C29.1164 17.7388 29.2656 17.3785 29.2656 17.0028C29.2656 16.6272 29.1164 16.2669 28.8508 16.0013L20.8368 7.98718C20.7061 7.85187 20.5498 7.74395 20.3769 7.6697C20.2041 7.59546 20.0182 7.55638 19.8301 7.55474C19.642 7.55311 19.4554 7.58895 19.2813 7.66018C19.1072 7.73141 18.949 7.83661 18.816 7.96962C18.683 8.10263 18.5778 8.26081 18.5066 8.43491C18.4354 8.60901 18.3995 8.79556 18.4012 8.98366C18.4028 9.17177 18.4419 9.35766 18.5161 9.5305C18.5904 9.70334 18.6983 9.85966 18.8336 9.99035L24.4294 15.5862L5.66851 15.5862C5.29279 15.5862 4.93245 15.7354 4.66677 16.0011C4.4011 16.2668 4.25184 16.6271 4.25184 17.0028C4.25184 17.3786 4.4011 17.7389 4.66677 18.0046C4.93245 18.2703 5.29279 18.4195 5.66851 18.4195H24.4294L18.8336 24.0153C18.5755 24.2825 18.4327 24.6404 18.436 25.0118C18.4392 25.3833 18.5882 25.7386 18.8509 26.0013C19.1135 26.2639 19.4688 26.4129 19.8403 26.4161C20.2117 26.4194 20.5696 26.2766 20.8368 26.0185L28.8508 18.0044Z" fill="white"/>
</g>
</g>
</g>
</g>
</g>
</g>
</g>
</g>
<defs>
<filter id="filter0_d_607_823" x="-884.6" y="-688.6" width="1088.2" height="960.2" filterUnits="userSpaceOnUse" color-interpolation-filters="sRGB">
<feFlood flood-opacity="0" result="BackgroundImageFix"/>
<feColorMatrix in="SourceAlpha" type="matrix" values="0 0 0 0 0 0 0 0 0 0 0 0 0 0 0 0 0 0 127 0" result="hardAlpha"/>
<feOffset dy="4"/>
<feGaussianBlur stdDeviation="15.3"/>
<feComposite in2="hardAlpha" operator="out"/>
<feColorMatrix type="matrix" values="0 0 0 0 0 0 0 0 0 0 0 0 0 0 0 0 0 0 0.07 0"/>
<feBlend mode="normal" in2="BackgroundImageFix" result="effect1_dropShadow_607_823"/>
<feBlend mode="normal" in="SourceGraphic" in2="effect1_dropShadow_607_823" result="shape"/>
</filter>
<filter id="filter1_d_607_823" x="-225.9" y="-30.9" width="371.8" height="97.8" filterUnits="userSpaceOnUse" color-interpolation-filters="sRGB">
<feFlood flood-opacity="0" result="BackgroundImageFix"/>
<feColorMatrix in="SourceAlpha" type="matrix" values="0 0 0 0 0 0 0 0 0 0 0 0 0 0 0 0 0 0 127 0" result="hardAlpha"/>
<feOffset dy="1"/>
<feGaussianBlur stdDeviation="10.45"/>
<feComposite in2="hardAlpha" operator="out"/>
<feColorMatrix type="matrix" values="0 0 0 0 0 0 0 0 0 0 0 0 0 0 0 0 0 0 0.03 0"/>
<feBlend mode="normal" in2="BackgroundImageFix" result="effect1_dropShadow_607_823"/>
<feBlend mode="normal" in="SourceGraphic" in2="effect1_dropShadow_607_823" result="shape"/>
</filter>
<clipPath id="clip0_607_823">
<rect width="34" height="34" fill="white" transform="matrix(0 1 -1 0 34 0)"/>
</clipPath>
</defs>
</svg>
